<svg width="800" height="500" xmlns="http://www.w3.org/2000/svg">
  <!-- Background -->
  <defs>
    <linearGradient id="bg" x1="0%" y1="0%" x2="100%" y2="100%">
      <stop offset="0%" style="stop-color:#74b9ff;stop-opacity:1" />
      <stop offset="100%" style="stop-color:#0984e3;stop-opacity:1" />
    </linearGradient>
  </defs>
  
  <rect width="800" height="500" fill="url(#bg)"/>
  
  <!-- Main container -->
  <rect x="50" y="50" width="700" height="400" fill="white" rx="15" opacity="0.95"/>
  
  <!-- Header -->
  <text x="400" y="100" text-anchor="middle" font-family="Arial, sans-serif" font-size="28" font-weight="bold" fill="#2c3e50">📅 Agenda Visual - Pulse</text>
  
  <!-- Time slots -->
  <text x="80" y="140" font-family="Arial" font-size="14" font-weight="bold" fill="#2c3e50">Horários do Dia</text>
  
  <!-- Time slot 1 -->
  <rect x="80" y="150" width="300" height="40" fill="#dff0d8" stroke="#d6e9c6" rx="5"/>
  <text x="90" y="165" font-family="Arial" font-size="12" font-weight="bold" fill="#3c763d">08:00</text>
  <text x="90" y="180" font-family="Arial" font-size="11" fill="#3c763d">Dr. Silva - Consulta Regular</text>
  
  <!-- Time slot 2 -->
  <rect x="400" y="150" width="300" height="40" fill="#fcf8e3" stroke="#faebcc" rx="5"/>
  <text x="410" y="165" font-family="Arial" font-size="12" font-weight="bold" fill="#8a6d3b">09:30</text>
  <text x="410" y="180" font-family="Arial" font-size="11" fill="#8a6d3b">Dra. Santos - Retorno</text>
  
  <!-- Time slot 3 -->
  <rect x="80" y="200" width="300" height="40" fill="#d9edf7" stroke="#bce8f1" rx="5"/>
  <text x="90" y="215" font-family="Arial" font-size="12" font-weight="bold" fill="#31708f">11:00</text>
  <text x="90" y="230" font-family="Arial" font-size="11" fill="#31708f">Dr. Costa - Primeira Consulta</text>
  
  <!-- Time slot 4 -->
  <rect x="400" y="200" width="300" height="40" fill="#f2dede" stroke="#ebccd1" rx="5"/>
  <text x="410" y="215" font-family="Arial" font-size="12" font-weight="bold" fill="#a94442">14:00</text>
  <text x="410" y="230" font-family="Arial" font-size="11" fill="#a94442">Dra. Lima - Urgência</text>
  
  <!-- Statistics section -->
  <rect x="80" y="270" width="620" height="120" fill="#f8f9fa" stroke="#dee2e6" rx="8"/>
  <text x="390" y="295" text-anchor="middle" font-family="Arial" font-size="16" font-weight="bold" fill="#495057">Estatísticas do Dia</text>
  
  <!-- Stats -->
  <rect x="120" y="310" width="120" height="60" fill="#17a2b8" rx="5"/>
  <text x="180" y="330" text-anchor="middle" font-family="Arial" font-size="20" font-weight="bold" fill="white">8</text>
  <text x="180" y="345" text-anchor="middle" font-family="Arial" font-size="10" fill="white">Consultas</text>
  <text x="180" y="355" text-anchor="middle" font-family="Arial" font-size="10" fill="white">Agendadas</text>
  
  <rect x="260" y="310" width="120" height="60" fill="#28a745" rx="5"/>
  <text x="320" y="330" text-anchor="middle" font-family="Arial" font-size="20" font-weight="bold" fill="white">6</text>
  <text x="320" y="345" text-anchor="middle" font-family="Arial" font-size="10" fill="white">Realizadas</text>
  
  <rect x="400" y="310" width="120" height="60" fill="#ffc107" rx="5"/>
  <text x="460" y="330" text-anchor="middle" font-family="Arial" font-size="20" font-weight="bold" fill="white">2</text>
  <text x="460" y="345" text-anchor="middle" font-family="Arial" font-size="10" fill="white">Pendentes</text>
  
  <rect x="540" y="310" width="120" height="60" fill="#dc3545" rx="5"/>
  <text x="600" y="330" text-anchor="middle" font-family="Arial" font-size="20" font-weight="bold" fill="white">0</text>
  <text x="600" y="345" text-anchor="middle" font-family="Arial" font-size="10" fill="white">Canceladas</text>
  
  <!-- Footer -->
  <text x="400" y="420" text-anchor="middle" font-family="Arial" font-size="12" fill="#6c757d">Sistema de agenda com visualização por horários</text>
</svg>