<svg width="800" height="500" xmlns="http://www.w3.org/2000/svg">
  <!-- Background -->
  <defs>
    <linearGradient id="bg" x1="0%" y1="0%" x2="100%" y2="100%">
      <stop offset="0%" style="stop-color:#a29bfe;stop-opacity:1" />
      <stop offset="100%" style="stop-color:#6c5ce7;stop-opacity:1" />
    </linearGradient>
  </defs>
  
  <rect width="800" height="500" fill="url(#bg)"/>
  
  <!-- Main container -->
  <rect x="50" y="50" width="700" height="400" fill="white" rx="15" opacity="0.95"/>
  
  <!-- Header -->
  <text x="400" y="100" text-anchor="middle" font-family="Arial, sans-serif" font-size="28" font-weight="bold" fill="#2c3e50">👥 Gestão de Pacientes</text>
  
  <!-- Search bar -->
  <rect x="80" y="120" width="500" height="35" fill="#f8f9fa" stroke="#dee2e6" rx="5"/>
  <text x="90" y="140" font-family="Arial" font-size="14" fill="#6c757d">🔍 Buscar pacientes...</text>
  
  <!-- Filter button -->
  <rect x="600" y="120" width="100" height="35" fill="#007bff" rx="5"/>
  <text x="650" y="140" text-anchor="middle" font-family="Arial" font-size="12" font-weight="bold" fill="white">Filtros</text>
  
  <!-- Patient list header -->
  <rect x="80" y="170" width="620" height="30" fill="#e9ecef"/>
  <text x="90" y="188" font-family="Arial" font-size="12" font-weight="bold" fill="#495057">Nome</text>
  <text x="250" y="188" font-family="Arial" font-size="12" font-weight="bold" fill="#495057">CPF</text>
  <text x="380" y="188" font-family="Arial" font-size="12" font-weight="bold" fill="#495057">Telefone</text>
  <text x="520" y="188" font-family="Arial" font-size="12" font-weight="bold" fill="#495057">Última Consulta</text>
  <text x="660" y="188" font-family="Arial" font-size="12" font-weight="bold" fill="#495057">Ações</text>
  
  <!-- Patient row 1 -->
  <rect x="80" y="200" width="620" height="35" fill="#ffffff" stroke="#dee2e6"/>
  <text x="90" y="220" font-family="Arial" font-size="11" fill="#212529">Maria Silva Santos</text>
  <text x="250" y="220" font-family="Arial" font-size="11" fill="#212529">123.456.789-00</text>
  <text x="380" y="220" font-family="Arial" font-size="11" fill="#212529">(11) 99999-9999</text>
  <text x="520" y="220" font-family="Arial" font-size="11" fill="#212529">15/10/2025</text>
  <rect x="660" y="205" width="30" height="25" fill="#28a745" rx="3"/>
  <text x="675" y="220" text-anchor="middle" font-family="Arial" font-size="10" fill="white">Ver</text>
  
  <!-- Patient row 2 -->
  <rect x="80" y="235" width="620" height="35" fill="#f8f9fa" stroke="#dee2e6"/>
  <text x="90" y="255" font-family="Arial" font-size="11" fill="#212529">João Pedro Costa</text>
  <text x="250" y="255" font-family="Arial" font-size="11" fill="#212529">987.654.321-00</text>
  <text x="380" y="255" font-family="Arial" font-size="11" fill="#212529">(11) 88888-8888</text>
  <text x="520" y="255" font-family="Arial" font-size="11" fill="#212529">12/10/2025</text>
  <rect x="660" y="240" width="30" height="25" fill="#28a745" rx="3"/>
  <text x="675" y="255" text-anchor="middle" font-family="Arial" font-size="10" fill="white">Ver</text>
  
  <!-- Patient row 3 -->
  <rect x="80" y="270" width="620" height="35" fill="#ffffff" stroke="#dee2e6"/>
  <text x="90" y="290" font-family="Arial" font-size="11" fill="#212529">Ana Beatriz Lima</text>
  <text x="250" y="290" font-family="Arial" font-size="11" fill="#212529">456.789.123-00</text>
  <text x="380" y="290" font-family="Arial" font-size="11" fill="#212529">(11) 77777-7777</text>
  <text x="520" y="290" font-family="Arial" font-size="11" fill="#212529">08/10/2025</text>
  <rect x="660" y="275" width="30" height="25" fill="#28a745" rx="3"/>
  <text x="675" y="290" text-anchor="middle" font-family="Arial" font-size="10" fill="white">Ver</text>
  
  <!-- Stats section -->
  <rect x="80" y="320" width="620" height="80" fill="#f8f9fa" stroke="#dee2e6" rx="8"/>
  <text x="390" y="340" text-anchor="middle" font-family="Arial" font-size="14" font-weight="bold" fill="#495057">Estatísticas de Pacientes</text>
  
  <!-- Patient stats -->
  <rect x="120" y="350" width="100" height="40" fill="#17a2b8" rx="5"/>
  <text x="170" y="365" text-anchor="middle" font-family="Arial" font-size="16" font-weight="bold" fill="white">245</text>
  <text x="170" y="378" text-anchor="middle" font-family="Arial" font-size="9" fill="white">Total</text>
  
  <rect x="240" y="350" width="100" height="40" fill="#28a745" rx="5"/>
  <text x="290" y="365" text-anchor="middle" font-family="Arial" font-size="16" font-weight="bold" fill="white">198</text>
  <text x="290" y="378" text-anchor="middle" font-family="Arial" font-size="9" fill="white">Ativos</text>
  
  <rect x="360" y="350" width="100" height="40" fill="#ffc107" rx="5"/>
  <text x="410" y="365" text-anchor="middle" font-family="Arial" font-size="16" font-weight="bold" fill="white">32</text>
  <text x="410" y="378" text-anchor="middle" font-family="Arial" font-size="9" fill="white">Novos/Mês</text>
  
  <rect x="480" y="350" width="100" height="40" fill="#dc3545" rx="5"/>
  <text x="530" y="365" text-anchor="middle" font-family="Arial" font-size="16" font-weight="bold" fill="white">15</text>
  <text x="530" y="378" text-anchor="middle" font-family="Arial" font-size="9" fill="white">Inativos</text>
  
  <!-- Footer -->
  <text x="400" y="425" text-anchor="middle" font-family="Arial" font-size="12" fill="#6c757d">Interface moderna com busca e filtros avançados</text>
</svg>